<mxfile host="app.diagrams.net" modified="2023-09-14T21:50:35.369Z" agent="Mozilla/5.0 (X11; Linux x86_64) AppleWebKit/537.36 (KHTML, like Gecko) Chrome/118.0.0.0 Safari/537.36" etag="AkT-fCntJeGJg9gVFZXM" version="21.7.5" type="github" pages="2">
  <diagram name="Boot Process" id="qeCUHLNeH_I6itKI6iWI">
    <mxGraphModel dx="1593" dy="887" grid="1" gridSize="10" guides="0" tooltips="1" connect="1" arrows="1" fold="1" page="1" pageScale="1" pageWidth="840" pageHeight="840" math="0" shadow="0">
      <root>
        <mxCell id="0" />
        <mxCell id="1" parent="0" />
        <mxCell id="pja_1ZP282FQhUOb1fi8-11" value="Primitive Kernel (ASM)" style="swimlane;whiteSpace=wrap;html=1;" vertex="1" parent="1">
          <mxGeometry x="40" y="40" width="200" height="720" as="geometry" />
        </mxCell>
        <mxCell id="pja_1ZP282FQhUOb1fi8-14" style="edgeStyle=orthogonalEdgeStyle;rounded=0;orthogonalLoop=1;jettySize=auto;html=1;exitX=0.5;exitY=1;exitDx=0;exitDy=0;entryX=0.5;entryY=0;entryDx=0;entryDy=0;" edge="1" parent="pja_1ZP282FQhUOb1fi8-11" source="pja_1ZP282FQhUOb1fi8-12" target="pja_1ZP282FQhUOb1fi8-13">
          <mxGeometry relative="1" as="geometry" />
        </mxCell>
        <mxCell id="pja_1ZP282FQhUOb1fi8-12" value="Start of Boot" style="rounded=0;whiteSpace=wrap;html=1;" vertex="1" parent="pja_1ZP282FQhUOb1fi8-11">
          <mxGeometry x="40" y="60" width="120" height="60" as="geometry" />
        </mxCell>
        <mxCell id="pja_1ZP282FQhUOb1fi8-13" value="Load GDT" style="rounded=0;whiteSpace=wrap;html=1;" vertex="1" parent="pja_1ZP282FQhUOb1fi8-11">
          <mxGeometry x="40" y="160" width="120" height="60" as="geometry" />
        </mxCell>
        <mxCell id="pja_1ZP282FQhUOb1fi8-58" style="edgeStyle=orthogonalEdgeStyle;rounded=0;orthogonalLoop=1;jettySize=auto;html=1;entryX=0;entryY=0.5;entryDx=0;entryDy=0;" edge="1" parent="1" source="pja_1ZP282FQhUOb1fi8-13" target="pja_1ZP282FQhUOb1fi8-59">
          <mxGeometry relative="1" as="geometry">
            <mxPoint x="280" y="230" as="targetPoint" />
            <Array as="points">
              <mxPoint x="220" y="230" />
              <mxPoint x="220" y="140" />
            </Array>
          </mxGeometry>
        </mxCell>
        <mxCell id="pja_1ZP282FQhUOb1fi8-59" value="Load GDT" style="swimlane;horizontal=0;whiteSpace=wrap;html=1;" vertex="1" parent="1">
          <mxGeometry x="280" y="40" width="520" height="200" as="geometry" />
        </mxCell>
        <mxCell id="pja_1ZP282FQhUOb1fi8-68" style="edgeStyle=orthogonalEdgeStyle;rounded=0;orthogonalLoop=1;jettySize=auto;html=1;entryX=0;entryY=0.5;entryDx=0;entryDy=0;" edge="1" parent="pja_1ZP282FQhUOb1fi8-59" source="pja_1ZP282FQhUOb1fi8-61" target="pja_1ZP282FQhUOb1fi8-67">
          <mxGeometry relative="1" as="geometry" />
        </mxCell>
        <mxCell id="pja_1ZP282FQhUOb1fi8-76" style="edgeStyle=orthogonalEdgeStyle;rounded=0;orthogonalLoop=1;jettySize=auto;html=1;exitX=0;exitY=0.5;exitDx=0;exitDy=0;entryX=0;entryY=0.5;entryDx=0;entryDy=0;" edge="1" parent="pja_1ZP282FQhUOb1fi8-59" source="pja_1ZP282FQhUOb1fi8-61" target="pja_1ZP282FQhUOb1fi8-70">
          <mxGeometry relative="1" as="geometry">
            <Array as="points">
              <mxPoint x="30" y="50" />
              <mxPoint x="30" y="140" />
            </Array>
          </mxGeometry>
        </mxCell>
        <mxCell id="pja_1ZP282FQhUOb1fi8-61" value="GDT Descriptor" style="rounded=0;whiteSpace=wrap;html=1;" vertex="1" parent="pja_1ZP282FQhUOb1fi8-59">
          <mxGeometry x="40" y="20" width="120" height="60" as="geometry" />
        </mxCell>
        <mxCell id="pja_1ZP282FQhUOb1fi8-67" value="Set Constants" style="rounded=0;whiteSpace=wrap;html=1;" vertex="1" parent="pja_1ZP282FQhUOb1fi8-59">
          <mxGeometry x="200" y="20" width="120" height="60" as="geometry" />
        </mxCell>
        <mxCell id="pja_1ZP282FQhUOb1fi8-70" value="GDT Entries" style="swimlane;horizontal=0;whiteSpace=wrap;html=1;" vertex="1" parent="pja_1ZP282FQhUOb1fi8-59">
          <mxGeometry x="40" y="100" width="460" height="80" as="geometry">
            <mxRectangle x="40" y="100" width="40" height="100" as="alternateBounds" />
          </mxGeometry>
        </mxCell>
        <mxCell id="pja_1ZP282FQhUOb1fi8-72" value="GDT Null Entry" style="rounded=0;whiteSpace=wrap;html=1;" vertex="1" parent="pja_1ZP282FQhUOb1fi8-70">
          <mxGeometry x="40" y="10" width="120" height="60" as="geometry" />
        </mxCell>
        <mxCell id="pja_1ZP282FQhUOb1fi8-73" value="GDT Code Entry" style="rounded=0;whiteSpace=wrap;html=1;" vertex="1" parent="pja_1ZP282FQhUOb1fi8-70">
          <mxGeometry x="180" y="10" width="120" height="60" as="geometry" />
        </mxCell>
        <mxCell id="pja_1ZP282FQhUOb1fi8-74" value="GDT Data Entry" style="rounded=0;whiteSpace=wrap;html=1;" vertex="1" parent="pja_1ZP282FQhUOb1fi8-70">
          <mxGeometry x="320" y="10" width="120" height="60" as="geometry" />
        </mxCell>
      </root>
    </mxGraphModel>
  </diagram>
  <diagram id="-NoOx79UxAo9WDydEZD8" name="dependencies">
    <mxGraphModel dx="1434" dy="798" grid="1" gridSize="10" guides="1" tooltips="1" connect="1" arrows="1" fold="1" page="1" pageScale="1" pageWidth="850" pageHeight="1100" math="0" shadow="0">
      <root>
        <mxCell id="0" />
        <mxCell id="1" parent="0" />
      </root>
    </mxGraphModel>
  </diagram>
</mxfile>
